<svg xmlns="http://www.w3.org/2000/svg" xmlns:svg="http://www.w3.org/2000/svg" id="Ebene_1" x="0" y="0" version="1.1" viewBox="0 0 32 32" style="enable-background:new 0 0 32 32" xml:space="preserve"><style id="style43" type="text/css">.st0{fill:#5961ff}</style><title id="title45">redis 32</title><path style="fill:none;fill-opacity:1;stroke:#5961ff;stroke-width:1px;stroke-linecap:butt;stroke-linejoin:miter;stroke-opacity:1" id="path22720" d="M 1.6026711,13.165275 16.293823,29.352253 11.218697,29.298833"/><path style="fill:none;stroke:#5961ff;stroke-width:1px;stroke-linecap:butt;stroke-linejoin:miter;stroke-opacity:1" id="path22718" d="m 16,1 13.355593,17.148581 -0.05342,-5.075125"/><path id="path47" d="M16,32c-0.6,0-1.1-0.1-1.6-0.4L3.3,25.2c-1-0.6-1.6-1.6-1.6-2.7V9.6c0-1.1,0.6-2.2,1.6-2.7l11.1-6.4 c1-0.6,2.2-0.6,3.2,0l11.1,6.4c1,0.6,1.6,1.6,1.6,2.7v12.8c0,1.1-0.6,2.2-1.6,2.7l-11.1,6.4C17.1,31.9,16.6,32,16,32z M16,1 c-0.4,0-0.8,0.1-1.1,0.3L3.8,7.7C3.1,8.1,2.7,8.8,2.7,9.6v12.8c0,0.8,0.4,1.5,1.1,1.9l11.1,6.4c0.7,0.4,1.5,0.4,2.2,0l11.1-6.4 c0.7-0.4,1.1-1.1,1.1-1.9V9.6c0-0.8-0.4-1.5-1.1-1.9L17.1,1.3C16.8,1.1,16.4,1,16,1z" class="st0" style="fill-opacity:0;fill:#5961ff"/><path id="path49" d="m 29.833557,29.937896 h -7.5 v -7.5 h 7.5 c 0,0 0,7.5 0,7.5 z m -6.5,-1 h 5.5 v -5.5 h -5.5 c 0,0 0,5.5 0,5.5 z" class="st0" style="fill:#5961ff;fill-opacity:1"/><path id="path51" d="m 5.503339,9.6787984 c -2.3,0 -4.2,-1.9000004 -4.2,-4.2000004 0,-2.3 1.9,-4.2 4.2,-4.2 2.3,0 4.1999996,1.9 4.1999996,4.2 0,2.3 -1.8999996,4.2000004 -4.1999996,4.2000004 z m 0,-7.4000004 c -1.8,0 -3.2,1.4 -3.2,3.2 0,1.8 1.4,3.2000004 3.2,3.2000004 1.8,0 3.1999996,-1.4000004 3.1999996,-3.2000004 0,0 0,0 0,0 0,-1.8 -1.4999996,-3.2 -3.1999996,-3.2 z" class="st0"/><path id="path53" d="m 20.333055,18.608014 h -8.1 l -0.2,-0.3 c -0.1,-0.2 -0.1,-0.4 0,-0.6 l 4.1,-7.1 h 0.3 v 0 c 0.2,0 0.4,0.1 0.5,0.3 l 4.1,7.1 -0.3,0.6 z m -7.1,-1 h 6.4 l -3.2,-5.5 z m 3.5,-6.2 z" class="st0"/><metadata id="metadata140"/></svg>