<svg xmlns="http://www.w3.org/2000/svg" xmlns:svg="http://www.w3.org/2000/svg" id="Ebene_1" x="0" y="0" version="1.1" viewBox="0 0 32 32" style="enable-background:new 0 0 32 32" xml:space="preserve"><style id="style43" type="text/css">.st0{fill:#5961ff}</style><title id="title45">redis 32</title><path id="path47" d="M16,32c-0.6,0-1.1-0.1-1.6-0.4L3.3,25.2c-1-0.6-1.6-1.6-1.6-2.7V9.6c0-1.1,0.6-2.2,1.6-2.7l11.1-6.4 c1-0.6,2.2-0.6,3.2,0l11.1,6.4c1,0.6,1.6,1.6,1.6,2.7v12.8c0,1.1-0.6,2.2-1.6,2.7l-11.1,6.4C17.1,31.9,16.6,32,16,32z M16,1 c-0.4,0-0.8,0.1-1.1,0.3L3.8,7.7C3.1,8.1,2.7,8.8,2.7,9.6v12.8c0,0.8,0.4,1.5,1.1,1.9l11.1,6.4c0.7,0.4,1.5,0.4,2.2,0l11.1-6.4 c0.7-0.4,1.1-1.1,1.1-1.9V9.6c0-0.8-0.4-1.5-1.1-1.9L17.1,1.3C16.8,1.1,16.4,1,16,1z" class="st0" style="fill-opacity:0;fill:#5961ff"/><metadata id="metadata140"/></svg>