<svg xmlns="http://www.w3.org/2000/svg" xmlns:xlink="http://www.w3.org/1999/xlink" id="Layer_1" x="0" y="0" version="1.1" viewBox="0 0 14 11" style="enable-background:new 0 0 14 11" xml:space="preserve"><style type="text/css">.st0{fill:#b52925}</style><g><g><path d="M0.2,6C0.1,5.9,0.1,5.8,0.1,5.7c0-0.1,0.1-0.3,0.2-0.4L1,4.5c0.2-0.2,0.5-0.2,0.7,0l0.1,0.1l2.9,3.1 c0.1,0.1,0.3,0.1,0.4,0l7.2-7.4c0.2-0.2,0.5-0.2,0.7,0l0.7,0.7c0.2,0.2,0.2,0.5,0,0.7l-8.5,8.8c-0.1,0.1-0.2,0.2-0.4,0.2 c-0.2,0-0.3-0.1-0.4-0.2L0.2,6z M0.2,6" class="st0"/></g></g></svg>