<svg xmlns="http://www.w3.org/2000/svg" xmlns:xlink="http://www.w3.org/1999/xlink" id="Layer_1" x="0" y="0" version="1.1" viewBox="0 0 27 28" style="enable-background:new 0 0 27 28" xml:space="preserve"><style type="text/css">.st0{fill:#a2a8a8}.st1{fill:#393b3c}</style><g><path d="M24.7,27.6H2.5c-1.1,0-2-0.9-2-2V2.3c0-1.1,0.9-2,2-2h22.2c1.1,0,2,0.9,2,2v23.3 C26.7,26.8,25.8,27.6,24.7,27.6z" class="st0"/><g><path d="M17.3,9.7v11H7v0.1c0,1.4,1.1,2.5,2.5,2.5h8.2c1.4,0,2.5-1.1,2.5-2.5V9.7H17.3z" class="st1"/><path d="M9.6,18.6v-11h10.6V7.2c0-1.4-1.1-2.5-2.5-2.5H9.5C8.1,4.7,7,5.8,7,7.2v11.3H9.6z" class="st1"/></g></g></svg>